{"title":"Alison Tyler - Strip For Me - Scene 3","uid":7769350,"size":153177626,"categoryP":"porn","categoryS":"movie_clips","magnet":"?xt=urn:btih:ea1fbec48cfbc9f42fb9aac47d036fadd49fe366&amp;dn=Alison+Tyler+-+Strip+For+Me+-+Scene+3&amp;tr=udp%3A%2F%2Ftracker.openbittorrent.com%3A80&amp;tr=udp%3A%2F%2Fopen.demonii.com%3A1337&amp;tr=udp%3A%2F%2Ftracker.coppersurfer.tk%3A6969&amp;tr=udp%3A%2F%2Fexodus.desync.com%3A6969","seeders":0,"leechers":3,"uploader":"athklym","files":1,"time":1351473273,"description":"\nAlison_Tyler_Strip_For_Me_Scene_3.avi\nFormat : AVI\nFormat/Info : Audio Video Interleave\nFile size : 146 MiB\nDuration : 22mn 56s\nOverall bit rate mode : Variable\nOverall bit rate : 890 Kbps\nWriting application : VirtualDubMod 1.5.10.2 (build 2540/release)\nWriting library : Boilsoft AVI tool build 1/release\n\nVideo\nID : 0\nFormat : MPEG-4 Visual\nFormat profile : Simple@L5\nFormat settings, BVOP : No\nFormat settings, QPel : No\nFormat settings, GMC : No warppoints\nFormat settings, Matrix : Default (H.263)\nCodec ID : XVID\nCodec ID/Hint : XviD\nDuration : 22mn 56s\nBit rate : 768 Kbps\nWidth : 624 pixels\nHeight : 352 pixels\nDisplay aspect ratio : 16:9\nFrame rate : 23.976 fps\nColor space : YUV\nChroma subsampling : 4:2:0\nBit depth : 8 bits\nScan type : Progressive\nCompression mode : Lossy\nBits/(Pixel*Frame) : 0.146\nStream size : 126 MiB (86%)\nWriting library : XviD 64\n\nAudio\nID : 1\nFormat : MPEG Audio\nFormat version : Version 1\nFormat profile : Layer 3\nMode : Joint stereo\nMode extension : MS Stereo\nCodec ID : 55\nCodec ID/Hint : MP3\nDuration : 22mn 56s\nBit rate mode : Variable\nBit rate : 109 Kbps\nChannel(s) : 2 channels\nSampling rate : 48.0 KHz\nCompression mode : Lossy\nStream size : 18.0 MiB (12%)\nAlignment : Aligned on interleaves\nInterleave, duration : 24 ms (0.58 video frame)\nInterleave, preload duration : 508 ms","torrent":{"xt":"urn:btih:ea1fbec48cfbc9f42fb9aac47d036fadd49fe366","amp;dn":"Alison+Tyler+-+Strip+For+Me+-+Scene+3","amp;tr":["udp%3A%2F%2Ftracker.openbittorrent.com%3A80","udp%3A%2F%2Fopen.demonii.com%3A1337","udp%3A%2F%2Ftracker.coppersurfer.tk%3A6969","udp%3A%2F%2Fexodus.desync.com%3A6969"],"infoHash":"ea1fbec48cfbc9f42fb9aac47d036fadd49fe366","infoHashBuffer":{"type":"Buffer","data":[234,31,190,196,140,251,201,244,47,185,170,196,125,3,111,173,212,159,227,102]},"announce":[],"urlList":[]}}